<?xml version="1.0" encoding="UTF-8" standalone="no"?>
<!-- Uploaded to: SVG Repo, www.svgrepo.com, Generator: SVG Repo Mixer Tools -->

<svg
   width="800"
   height="800"
   viewBox="0 0 64 64"
   fill="none"
   version="1.1"
   id="svg5"
   xml:space="preserve"
   xmlns="http://www.w3.org/2000/svg"
   xmlns:svg="http://www.w3.org/2000/svg"><path
     d="m 31.885,16 c -8.124,0 -7.617,3.523 -7.617,3.523 l 0.01,3.65 h 7.752 v 1.095 H 21.197 c 0,0 -5.197,-0.59 -5.197,7.608 0,8.196 4.537,7.906 4.537,7.906 h 2.708 v -3.804 c 0,0 -0.146,-4.537 4.465,-4.537 h 7.688 c 0,0 4.32,0.07 4.32,-4.175 v -7.019 c 0,0 0.656,-4.247 -7.833,-4.247 z m -4.275,2.454 c 0.771,0 1.395,0.624 1.395,1.395 0,0.771 -0.624,1.395 -1.395,1.395 a 1.393,1.393 0 0 1 -1.395,-1.395 c 0,-0.771 0.624,-1.395 1.395,-1.395 z"
     fill="url(#a)"
     id="path1"
     style="fill:url(#a)" /><path
     d="m 32.115,47.833 c 8.124,0 7.617,-3.523 7.617,-3.523 l -0.01,-3.65 H 31.97 v -1.095 h 10.832 c 0,0 5.198,0.59 5.198,-7.607 0,-8.197 -4.537,-7.906 -4.537,-7.906 h -2.708 v 3.803 c 0,0 0.146,4.537 -4.465,4.537 h -7.688 c 0,0 -4.32,-0.07 -4.32,4.175 v 7.019 c 0,0 -0.656,4.247 7.833,4.247 z m 4.275,-2.454 a 1.393,1.393 0 0 1 -1.395,-1.395 c 0,-0.77 0.624,-1.394 1.395,-1.394 0.771,0 1.395,0.623 1.395,1.394 0,0.772 -0.624,1.395 -1.395,1.395 z"
     fill="url(#b)"
     id="path2"
     style="fill:url(#b)" /><defs
     id="defs5"><rect
       x="153.44922"
       y="11.583793"
       width="935.82794"
       height="208.51335"
       id="rect7" /><rect
       x="175.85312"
       y="6.6719308"
       width="1032.2144"
       height="240.86729"
       id="rect6" /><linearGradient
       id="a"
       x1="19.075001"
       y1="18.782"
       x2="34.897999"
       y2="34.658001"
       gradientUnits="userSpaceOnUse"><stop
         stop-color="#387EB8"
         id="stop2" /><stop
         offset="1"
         stop-color="#366994"
         id="stop3" /></linearGradient><linearGradient
       id="b"
       x1="28.809"
       y1="28.882"
       x2="45.803001"
       y2="45.162998"
       gradientUnits="userSpaceOnUse"><stop
         stop-color="#FFE052"
         id="stop4" /><stop
         offset="1"
         stop-color="#FFC331"
         id="stop5" /></linearGradient><rect
       x="175.85312"
       y="6.6719308"
       width="1032.2144"
       height="240.86729"
       id="rect6-3" /><rect
       x="153.44922"
       y="11.583793"
       width="935.82794"
       height="208.51335"
       id="rect7-2" /><rect
       x="153.44922"
       y="11.583793"
       width="935.82794"
       height="208.51335"
       id="rect2581" /><rect
       x="153.44922"
       y="11.583793"
       width="935.82794"
       height="208.51335"
       id="rect2582" /><clipPath
       clipPathUnits="userSpaceOnUse"
       id="clipPath2582"><text
         xml:space="preserve"
         transform="matrix(1.285599,0,0,1.399089,-98.296733,23.066224)"
         id="text2583"
         style="font-style:normal;font-variant:normal;font-weight:900;font-stretch:normal;font-size:100px;font-family:sans-serif;-inkscape-font-specification:'sans-serif Heavy';writing-mode:lr-tb;white-space:pre;shape-inside:url(#rect7-2);display:inline;fill:#000000;fill-opacity:1"
         x="576.81049"
         y="0"><tspan
           x="272.96336"
           y="102.5715"
           id="tspan20"><tspan
             style="text-align:center;text-anchor:middle"
             id="tspan7">Software Club</tspan></tspan></text></clipPath><clipPath
       clipPathUnits="userSpaceOnUse"
       id="clipPath2584"><text
         xml:space="preserve"
         transform="matrix(1.285599,0,0,1.399089,-97.283056,-19.794893)"
         id="text2584"
         style="font-style:normal;font-variant:normal;font-weight:900;font-stretch:normal;font-size:170.667px;font-family:sans-serif;-inkscape-font-specification:'sans-serif Heavy';writing-mode:lr-tb;white-space:pre;shape-inside:url(#rect7);fill:#000000;fill-opacity:1"
         x="232.96056"
         y="0"><tspan
           x="497.20304"
           y="166.86966"
           id="tspan22"><tspan
             style="text-align:center;text-anchor:middle"
             id="tspan21">AH</tspan></tspan></text></clipPath></defs><g
     style="fill:none"
     id="g5"
     transform="matrix(0.2923345,0,0,0.2923345,15.313063,14.284978)"><path
       d="M 16.0497,8.44062 C 22.6378,3.32607 19.2566,0 19.2566,0 c 0.5032,5.28738 -5.4436,6.53583 -7.0377,10.1692 -1.0877,2.4793 0.7449,4.6501 3.8286,7.3862 -0.2726,-0.606 -0.6931,-1.1948 -1.1187,-1.7909 -1.4519,-2.0332 -2.9643,-4.1513 1.1209,-7.32388 z m 82.063909,104.31569 c -6.5881,5.11455 -3.2069,8.44062 -3.2069,8.44062 -0.5032,-5.28738 5.443601,-6.53583 7.037701,-10.1692 1.0877,-2.4793 -0.7449,-4.6501 -3.828601,-7.3862 0.2726,0.606 0.6931,1.1948 1.1187,1.7909 1.451901,2.0332 2.964301,4.1513 -1.1209,7.32388 z"
       fill="#e76f00"
       id="path1-3" /><path
       d="m 17.1015,18.677 c 0,0 1.982,-1.5991 0.4124,-3.3762 -5.3208,-6.02894 5.8194,-8.76497 5.8194,-8.76497 -6.8016,3.27667 -5.7862,5.22157 -4.0766,7.58437 1.8304,2.5336 -2.1552,4.5568 -2.1552,4.5568 z m 79.960309,83.84293 c 0,0 -1.982,1.5991 -0.4124,3.3762 5.320801,6.02894 -5.8194,8.76497 -5.8194,8.76497 6.8016,-3.27667 5.7862,-5.22157 4.0766,-7.58437 -1.8304,-2.5336 2.1552,-4.5568 2.1552,-4.5568 z"
       fill="#e76f00"
       id="path2-6" /><path
       d="m 22.937,23.4456 c 6.1053,-3.1198 3.2825,-6.1178 1.3122,-5.7139 -0.483,0.0988 -0.6983,0.1845 -0.6983,0.1845 0,0 0.1793,-0.2762 0.5217,-0.3958 3.8979,-1.3475 6.8956,3.9745 -1.2583,6.0824 0,1e-4 0.0945,-0.083 0.1227,-0.1572 z m 68.289309,74.30573 c -6.1053,3.1198 -3.2825,6.1178 -1.3122,5.7139 0.483,-0.0988 0.6983,-0.1845 0.6983,-0.1845 0,0 -0.1793,0.2762 -0.5217,0.3958 -3.8979,1.3475 -6.8956,-3.9745 1.2583,-6.0824 0,-1e-4 -0.0945,0.083 -0.1227,0.1572 z"
       fill="#5382a1"
       id="path3" /><path
       d="m 10.233,19.4969 c -3.81988,-0.5016 2.0945,-1.883 2.0945,-1.883 0,0 -2.2968,-0.1523 -5.12158,1.1904 -3.34015,1.5889 8.26218,2.3115 14.26808,0.7582 0.6244,-0.4193 1.4874,-0.7827 1.4874,-0.7827 0,0 -2.4577,0.4316 -4.9053,0.6347 -2.9949,0.2467 -6.2102,0.2948 -7.8231,0.0824 z m 93.69731,82.20313 c 3.81988,0.5016 -2.0945,1.883 -2.0945,1.883 0,0 2.2968,0.1523 5.12158,-1.1904 3.34015,-1.5889 -8.262181,-2.3115 -14.268081,-0.7582 -0.6244,0.4193 -1.4874,0.7827 -1.4874,0.7827 0,0 2.4577,-0.4316 4.9053,-0.6347 2.9949,-0.2467 6.210201,-0.2948 7.823101,-0.0824 z"
       fill="#5382a1"
       id="path4" /><path
       d="M 11.6864,22.4758 C 9.55624,22.2592 10.951,21.2439 10.951,21.2439 c -5.51202,1.799 3.0668,3.8391 10.7689,1.6243 -0.8187,-0.2838 -1.3393,-0.8029 -1.3393,-0.8029 -3.7643,0.7128 -5.9396,0.69 -8.6942,0.4105 z m 90.79051,76.24533 c 2.13016,0.2166 0.7354,1.2319 0.7354,1.2319 5.51202,-1.799 -3.0668,-3.8391 -10.768901,-1.6243 0.8187,0.2838 1.3393,0.8029 1.3393,0.8029 3.7643,-0.7128 5.9396,-0.69 8.694201,-0.4105 z"
       fill="#5382a1"
       id="path5" /><path
       d="m 12.6145,25.6991 c -2.1285,-0.2406 -0.885,-0.9517 -0.885,-0.9517 -5.00356,1.3748 3.0434,4.2151 9.4138,1.5303 -1.0434,-0.399 -1.7905,-0.8596 -1.7905,-0.8596 -2.8417,0.5288 -4.1597,0.5703 -6.7383,0.281 z m 88.93431,69.79873 c 2.1285,0.2406 0.885,0.9517 0.885,0.9517 5.00356,-1.3748 -3.043401,-4.2151 -9.413801,-1.5303 1.0434,0.399 1.7905,0.8596 1.7905,0.8596 2.8417,-0.5288 4.1597,-0.5703 6.738301,-0.281 z"
       fill="#5382a1"
       id="path6" /><path
       d="m 25.9387,27.3388 c 0,0 0.9202,0.7456 -1.0135,1.3224 C 21.2481,29.7566 9.62093,30.0874 6.39094,28.7049 5.22984,28.2082 7.40723,27.5189 8.09215,27.3742 8.80646,27.2219 9.21466,27.2503 9.21466,27.2503 7.9234,26.3558 0.868489,29.0067 5.63111,29.7659 18.6195,31.8372 29.3077,28.8331 25.9387,27.3388 Z m 62.285909,66.51933 c 0,0 -0.9202,-0.7456 1.0135,-1.3224 3.6771,-1.0954 15.304271,-1.4262 18.534261,-0.0437 1.1611,0.4967 -1.01629,1.186 -1.70121,1.3307 -0.71431,0.1523 -1.12251,0.1239 -1.12251,0.1239 1.29126,0.8945 8.34617,-1.7564 3.58355,-2.5156 -12.988391,-2.0713 -23.676591,0.9328 -20.307591,2.4271 z"
       fill="#5382a1"
       id="path7" /><path
       d="M 28,28.9679 C 27.7869,31.6947 18.7877,32.2683 12.9274,31.8994 9.10432,31.6583 8.33812,31.0558 8.32691,31.047 11.9859,31.6402 18.1549,31.7482 23.1568,30.8225 27.5903,30.0016 28,28.9679 28,28.9679 Z m 58.163309,63.26113 c 0.2131,-2.7268 9.2123,-3.3004 15.072601,-2.9315 3.82308,0.2411 4.58928,0.8436 4.60049,0.8524 -3.65899,-0.5932 -9.827991,-0.7012 -14.829891,0.2245 -4.4335,0.8209 -4.8432,1.8546 -4.8432,1.8546 z"
       fill="#5382a1"
       id="path8" /><text
       xml:space="preserve"
       transform="matrix(0.21286506,0,0,0.19559808,-90.300336,-50.139998)"
       id="text6"
       style="font-style:normal;font-variant:normal;font-weight:normal;font-stretch:normal;font-family:sans-serif;-inkscape-font-specification:sans-serif;writing-mode:lr-tb;white-space:pre;shape-inside:url(#rect6);fill:#03a062;fill-opacity:1"
       clip-path="url(#clipPath2584)"><tspan
         x="175.85352"
         y="17.590377"
         id="tspan23">111011110011001101101001000001100000010111010000111011100101010000110111100100001001111000010101111101000011101111011101000110101100111111111011100100</tspan><tspan
         x="175.85352"
         y="32.590377"
         id="tspan24">100111000111111000110100100000111111111000100010111111010001111010011000000011011110110010111010001111110111101111001100110110100100000110000001011101</tspan><tspan
         x="175.85352"
         y="47.590377"
         id="tspan25">000011101110010101000011011110010000100111100001010111110100001110111101110100011010110011111111101110010010011100011111100011010010000011111111100010</tspan><tspan
         x="175.85352"
         y="62.590377"
         id="tspan26">001011111101000111101001100000001101111011001011101000111111010011111101001001100110110000000110100100100101111000010000010010100001010010111001100001</tspan><tspan
         x="175.85352"
         y="77.590377"
         id="tspan27">010110010000011101100000001011001101011110111110011101110100100010100011010001110001110101111111001111110110011001110110111001011001010110111001000110</tspan><tspan
         x="175.85352"
         y="92.590377"
         id="tspan28">000101111010100010010001010000010100000011101110111011001010110011011001110011100000011010100011110110010010101111111011010101000001111011010110110011</tspan><tspan
         x="175.85352"
         y="107.59038"
         id="tspan29">100010010001001000100110001101101001001010111010110101111000011011000110111111111001010011011010110100001100111110011011000000011001010000110100100011</tspan><tspan
         x="175.85352"
         y="122.59038"
         id="tspan30">101110100100000101011100111111100010011111000010010111011101010001000111101000100011110010110100101111110010110101010001010110100100110110110000110001</tspan><tspan
         x="175.85352"
         y="137.59038"
         id="tspan31">011001000011111100010001010101101101111100111000000000001010100000110101000001001001000110110111001001101001010011011010111101111110000010010110011000</tspan><tspan
         x="175.85352"
         y="152.59038"
         id="tspan32">010000101000000011100010000011010001110101010011100011011000011001001101000101110100000000001001101101100010010110111001110000001001011100110011101100</tspan><tspan
         x="175.85352"
         y="167.59038"
         id="tspan33">001010000000100010101001101010110001001000010000001010010101011001010110111101100010111000100101001000110111100100010001000010111010011000101100001000</tspan><tspan
         x="175.85352"
         y="182.59038"
         id="tspan34">010110101011100100111101001010111010110010001110011111101010001010011011011011100001001110001111101111101000000010000000111101100111001010100000010111</tspan><tspan
         x="175.85352"
         y="197.59038"
         id="tspan35">010011000100110110000010000111001001001101001101111011100010010101010011111110101111011101011111011010110111110000000111010100011100110100010110010001</tspan><tspan
         x="175.85352"
         y="212.59038"
         id="tspan36">111101001101001110010111111110110001100001011011001100010010010001100001000001000100001101010011111001101111010101001010000111011101110001101001010000</tspan><tspan
         x="175.85352"
         y="227.59038"
         id="tspan37">010000011011011010111010001010010110000010000010001001110101110101111100111001011100010110010011101101010111011001100100001010110100010110110010001010</tspan><tspan
         x="175.85352"
         y="242.59038"
         id="tspan38">111101001110101010000111010001101010000111110100011000001010000011101100010010011001001100100101001111000000111001011011001110111010111001101101110101</tspan><tspan
         x="175.85352"
         y="258.45756"
         id="tspan40"><tspan
           dx="0 6.864006 6.864006 6.864006 6.864006 6.864006 6.864006 6.864006 6.864006 6.864006 6.864006 6.864006 6.864006 6.864006 6.864006 6.864006 6.864006 6.864006 6.864006 6.8639984 6.8640137 6.8640137 6.8639984 6.8639984 6.8640137 6.8640137 6.8639984 6.8639984 6.8640137 6.8640137 6.8639984 6.8639984 6.8640137 6.8640137 6.8639984 6.8639984 6.8640137 6.8640137 6.8639832 6.8640137 6.8640137 6.8640137 6.8640137 6.8639832 6.8640137 6.8640137 6.8639832 6.8640137 6.8640137 6.8640137 6.8640137 6.8639832 6.8640137 6.8640137 6.8639832 6.8640137 6.8640137 6.8640137 6.8640137 6.8639832 6.8640137 6.8640137 6.8639832 6.8640137 6.8640137 6.8640137 6.8640137 6.8639832 6.8640137 6.8640137 6.8639832 6.8640137 6.8640137 6.8640137 6.8640137 6.8640137 6.8639526 6.8640137 6.8640137 6.8640137 6.8640137 6.8640137 6.8640137 6.8640137 6.8640137 6.8639526 6.8640137 6.8640137 6.8640137 6.8640137 6.8640137 6.8640137 6.8639526 6.8640137 6.8640137 6.8640137 6.8640137 6.8640137 6.8640137 6.8640137 6.8640137 6.8639526 6.8640137 6.8640137 6.8640137 6.8640137 6.8640137 6.8640137 6.8639526 6.8640137 6.8640137 6.8640137 6.8640137 6.8640137 6.8640137 6.8640137 6.8640137 6.8639526 6.8640137 6.8640137 6.8640137 6.8640137 6.8640137 6.8640137 6.8639526 6.8640137 6.8640137 6.8640137 6.8640137 6.8640137 6.8640137 6.8640137 6.8640137 6.8639526 6.8640137 6.8640137 6.8640137 6.8640137 6.8640137 6.8640137 6.8639526 6.8640137 6.8640137 6.8640137 6.8640137 6.8640137 6.8640137 6.8640137 6.8640137 6.8639526 6.8640747 6.8640137 6.8638916 6.8640137 6.8640137 6.8640137 6.8640137 6.8640137 6.8640137 6.8640137 6.8640137"
           id="tspan39">0010100100110100000011100110010101111111101101101100010000100010011000110101110111010100001100110001000000100001010101011101110111011001001011101000101000111111
</tspan></tspan></text><text
       xml:space="preserve"
       transform="matrix(0.21286506,0,0,0.19559808,-89.934441,122.58843)"
       id="text6-1"
       style="font-style:normal;font-variant:normal;font-weight:normal;font-stretch:normal;font-family:sans-serif;-inkscape-font-specification:sans-serif;writing-mode:lr-tb;white-space:pre;shape-inside:url(#rect6-3);display:inline;fill:#03a062;fill-opacity:1"
       clip-path="url(#clipPath2582)"><tspan
         x="175.85352"
         y="17.590377"
         id="tspan41">111011110011001101101001000001100000010111010000111011100101010000110111100100001001111000010101111101000011101111011101000110101100111111111011100100</tspan><tspan
         x="175.85352"
         y="32.590377"
         id="tspan42">100111000111111000110100100000111111111000100010111111010001111010011000000011011110110010111010001111110111101111001100110110100100000110000001011101</tspan><tspan
         x="175.85352"
         y="47.590377"
         id="tspan43">000011101110010101000011011110010000100111100001010111110100001110111101110100011010110011111111101110010010011100011111100011010010000011111111100010</tspan><tspan
         x="175.85352"
         y="62.590377"
         id="tspan44">001011111101000111101001100000001101111011001011101000111111010011111101001001100110110000000110100100100101111000010000010010100001010010111001100001</tspan><tspan
         x="175.85352"
         y="77.590377"
         id="tspan45">010110010000011101100000001011001101011110111110011101110100100010100011010001110001110101111111001111110110011001110110111001011001010110111001000110</tspan><tspan
         x="175.85352"
         y="92.590377"
         id="tspan46">000101111010100010010001010000010100000011101110111011001010110011011001110011100000011010100011110110010010101111111011010101000001111011010110110011</tspan><tspan
         x="175.85352"
         y="107.59038"
         id="tspan47">100010010001001000100110001101101001001010111010110101111000011011000110111111111001010011011010110100001100111110011011000000011001010000110100100011</tspan><tspan
         x="175.85352"
         y="122.59038"
         id="tspan48">101110100100000101011100111111100010011111000010010111011101010001000111101000100011110010110100101111110010110101010001010110100100110110110000110001</tspan><tspan
         x="175.85352"
         y="137.59038"
         id="tspan49">011001000011111100010001010101101101111100111000000000001010100000110101000001001001000110110111001001101001010011011010111101111110000010010110011000</tspan><tspan
         x="175.85352"
         y="152.59038"
         id="tspan50">010000101000000011100010000011010001110101010011100011011000011001001101000101110100000000001001101101100010010110111001110000001001011100110011101100</tspan><tspan
         x="175.85352"
         y="167.59038"
         id="tspan51">001010000000100010101001101010110001001000010000001010010101011001010110111101100010111000100101001000110111100100010001000010111010011000101100001000</tspan><tspan
         x="175.85352"
         y="182.59038"
         id="tspan52">010110101011100100111101001010111010110010001110011111101010001010011011011011100001001110001111101111101000000010000000111101100111001010100000010111</tspan><tspan
         x="175.85352"
         y="197.59038"
         id="tspan53">010011000100110110000010000111001001001101001101111011100010010101010011111110101111011101011111011010110111110000000111010100011100110100010110010001</tspan><tspan
         x="175.85352"
         y="212.59038"
         id="tspan54">111101001101001110010111111110110001100001011011001100010010010001100001000001000100001101010011111001101111010101001010000111011101110001101001010000</tspan><tspan
         x="175.85352"
         y="227.59038"
         id="tspan55">010000011011011010111010001010010110000010000010001001110101110101111100111001011100010110010011101101010111011001100100001010110100010110110010001010</tspan><tspan
         x="175.85352"
         y="242.59038"
         id="tspan56">111101001110101010000111010001101010000111110100011000001010000011101100010010011001001100100101001111000000111001011011001110111010111001101101110101</tspan><tspan
         x="175.85352"
         y="258.45756"
         id="tspan58"><tspan
           dx="0 6.864006 6.864006 6.864006 6.864006 6.864006 6.864006 6.864006 6.864006 6.864006 6.864006 6.864006 6.864006 6.864006 6.864006 6.864006 6.864006 6.864006 6.864006 6.8639984 6.8640137 6.8640137 6.8639984 6.8639984 6.8640137 6.8640137 6.8639984 6.8639984 6.8640137 6.8640137 6.8639984 6.8639984 6.8640137 6.8640137 6.8639984 6.8639984 6.8640137 6.8640137 6.8639832 6.8640137 6.8640137 6.8640137 6.8640137 6.8639832 6.8640137 6.8640137 6.8639832 6.8640137 6.8640137 6.8640137 6.8640137 6.8639832 6.8640137 6.8640137 6.8639832 6.8640137 6.8640137 6.8640137 6.8640137 6.8639832 6.8640137 6.8640137 6.8639832 6.8640137 6.8640137 6.8640137 6.8640137 6.8639832 6.8640137 6.8640137 6.8639832 6.8640137 6.8640137 6.8640137 6.8640137 6.8640137 6.8639526 6.8640137 6.8640137 6.8640137 6.8640137 6.8640137 6.8640137 6.8640137 6.8640137 6.8639526 6.8640137 6.8640137 6.8640137 6.8640137 6.8640137 6.8640137 6.8639526 6.8640137 6.8640137 6.8640137 6.8640137 6.8640137 6.8640137 6.8640137 6.8640137 6.8639526 6.8640137 6.8640137 6.8640137 6.8640137 6.8640137 6.8640137 6.8639526 6.8640137 6.8640137 6.8640137 6.8640137 6.8640137 6.8640137 6.8640137 6.8640137 6.8639526 6.8640137 6.8640137 6.8640137 6.8640137 6.8640137 6.8640137 6.8639526 6.8640137 6.8640137 6.8640137 6.8640137 6.8640137 6.8640137 6.8640137 6.8640137 6.8639526 6.8640137 6.8640137 6.8640137 6.8640137 6.8640137 6.8640137 6.8639526 6.8640137 6.8640137 6.8640137 6.8640137 6.8640137 6.8640137 6.8640137 6.8640137 6.8639526 6.8640747 6.8640137 6.8638916 6.8640137 6.8640137 6.8640137 6.8640137 6.8640137 6.8640137 6.8640137 6.8640137"
           id="tspan57">0010100100110100000011100110010101111111101101101100010000100010011000110101110111010100001100110001000000100001010101011101110111011001001011101000101000111111
</tspan></tspan></text><text
       xml:space="preserve"
       transform="matrix(0.27365911,0,0,0.27365911,-111.0085,-54.011841)"
       id="text2581"
       style="font-style:normal;font-variant:normal;font-weight:900;font-stretch:normal;font-size:170.667px;font-family:sans-serif;-inkscape-font-specification:'sans-serif Heavy';writing-mode:lr-tb;white-space:pre;shape-inside:url(#rect2581);fill:none;fill-opacity:1;stroke:#000000;stroke-width:2.26772;stroke-dasharray:none;stroke-opacity:1"
       x="232.96056"
       y="0"><tspan
         x="497.20304"
         y="166.86966"
         id="tspan60"><tspan
           style="text-align:center;text-anchor:middle"
           id="tspan59">AH</tspan></tspan></text><text
       xml:space="preserve"
       transform="matrix(0.27365911,0,0,0.27365911,-110.85838,127.10014)"
       id="text2582"
       style="font-style:normal;font-variant:normal;font-weight:900;font-stretch:normal;font-size:100px;font-family:sans-serif;-inkscape-font-specification:'sans-serif Heavy';writing-mode:lr-tb;white-space:pre;shape-inside:url(#rect2582);display:inline;fill:none;fill-opacity:1;stroke:#000000;stroke-width:2.26772;stroke-dasharray:none;stroke-opacity:1"
       x="576.81049"
       y="0"><tspan
         x="272.96336"
         y="102.5715"
         id="tspan62"><tspan
           style="text-align:center;text-anchor:middle"
           id="tspan61">Software Club</tspan></tspan></text></g></svg>
